<svg preserveAspectRatio="none" width="100%" height="100%" overflow="visible" style="display: block;" viewBox="0 0 36 36" fill="none" xmlns="http://www.w3.org/2000/svg">
<g id="openmoji:flag-malaysia">
<path id="Vector" d="M2.5 8.5H33.5V27.5H2.5V8.5Z" fill="var(--fill-0, white)"/>
<path id="Vector_2" d="M2.5 8.5H33.5V11H2.5V8.5ZM2.5 13H33.5V15H2.5V13ZM2.5 17H33.5V19H2.5V17ZM2.5 21H33.5V23H2.5V21ZM2.5 25H33.5V27.5H2.5V25Z" fill="var(--fill-0, #D22F27)"/>
<path id="Vector_3" d="M2.5 8.5H17V19H2.5V8.5Z" fill="var(--fill-0, #1E50A0)"/>
<g id="Group">
<path id="Vector_4" d="M6.9225 13.75C6.95516 13.0201 7.24397 12.325 7.73821 11.7869C8.23244 11.2488 8.90049 10.902 9.625 10.8075C9.41091 10.7696 9.19392 10.7503 8.9765 10.75C7.1255 10.75 5.625 12.093 5.625 13.75C5.625 15.407 7.125 16.75 8.9765 16.75C9.19392 16.7497 9.41091 16.7304 9.625 16.6925C8.90049 16.598 8.23244 16.2513 7.73821 15.7131C7.24397 15.175 6.95516 14.4799 6.9225 13.75Z" fill="var(--fill-0, #F1B31C)" stroke="var(--stroke-0, #F1B31C)" stroke-width="0.225" stroke-linecap="round" stroke-linejoin="round"/>
<path id="Vector_5" d="M12.306 12.9845L13.3545 11.2755L12.629 13.137L14.3335 12.041L12.8515 13.411L14.875 13.145L12.9305 13.752L14.872 14.3685L12.85 14.0925L14.3245 15.47L12.6255 14.3655L13.342 16.2305L12.3025 14.5165L12.118 16.5L11.944 14.5155L10.8955 16.2245L11.621 14.363L9.9165 15.459L11.3985 14.089L9.375 14.355L11.3195 13.748L9.378 13.1315L11.4 13.4075L9.9255 12.03L11.6245 13.1345L10.908 11.2695L11.9475 12.9835L12.132 11L12.306 12.9845Z" fill="var(--fill-0, #F1B31C)" stroke="var(--stroke-0, #F1B31C)" stroke-width="0.225" stroke-linecap="round" stroke-linejoin="round"/>
</g>
<path id="Vector_6" d="M2.5 8.5H33.5V27.5H2.5V8.5Z" stroke="var(--stroke-0, black)" stroke-width="0.45" stroke-linecap="round" stroke-linejoin="round"/>
</g>
</svg>
