<svg preserveAspectRatio="none" width="100%" height="100%" overflow="visible" style="display: block;" viewBox="0 0 36 36" fill="none" xmlns="http://www.w3.org/2000/svg">
<g id="openmoji:flag-philippines">
<path id="Vector" d="M2.5 8.5H33.5V27.5H2.5V8.5Z" fill="var(--fill-0, #1E50A0)"/>
<path id="Vector_2" d="M2.5 18H33.5V27.5H2.5V18Z" fill="var(--fill-0, #D22F27)"/>
<path id="Vector_3" d="M18.5 18L2.5 27.5V8.5L18.5 18Z" fill="var(--fill-0, white)"/>
<path id="Vector_4" d="M4.00638 11.022C4.29467 11.022 4.52837 10.7883 4.52837 10.5C4.52837 10.2117 4.29467 9.97803 4.00638 9.97803C3.71808 9.97803 3.48438 10.2117 3.48438 10.5C3.48438 10.7883 3.71808 11.022 4.00638 11.022Z" fill="var(--fill-0, #F1B31C)"/>
<path id="Vector_5" d="M16.4986 18.522C16.7869 18.522 17.0206 18.2883 17.0206 18C17.0206 17.7117 16.7869 17.478 16.4986 17.478C16.2103 17.478 15.9766 17.7117 15.9766 18C15.9766 18.2883 16.2103 18.522 16.4986 18.522Z" fill="var(--fill-0, #F1B31C)"/>
<path id="Vector_6" d="M4.00638 26.022C4.29467 26.022 4.52837 25.7883 4.52837 25.5C4.52837 25.2117 4.29467 24.978 4.00638 24.978C3.71808 24.978 3.48438 25.2117 3.48438 25.5C3.48438 25.7883 3.71808 26.022 4.00638 26.022Z" fill="var(--fill-0, #F1B31C)"/>
<path id="Vector_7" d="M8.9535 17.543L10.02 16.795L9.217 17.821L10.5 18.046L9.207 18.2035L9.955 19.27L8.9295 18.467L8.704 19.75L8.5465 18.457L7.48 19.205L8.283 18.1795L7 17.954L8.293 17.7965L7.545 16.73L8.571 17.533L8.796 16.25L8.9535 17.543Z" fill="var(--fill-0, #F1B31C)" stroke="var(--stroke-0, #F1B31C)" stroke-width="0.225" stroke-linecap="round" stroke-linejoin="round"/>
<path id="Vector_8" d="M2.5 8.5H33.5V27.5H2.5V8.5Z" stroke="var(--stroke-0, black)" stroke-width="0.45" stroke-linecap="round" stroke-linejoin="round"/>
</g>
</svg>
