<svg preserveAspectRatio="none" width="100%" height="100%" overflow="visible" style="display: block;" viewBox="0 0 36 36" fill="none" xmlns="http://www.w3.org/2000/svg">
<g id="openmoji:flag-singapore">
<path id="Vector" d="M2.5 8.5H33.5V27.5H2.5V8.5Z" fill="var(--fill-0, #D22F27)"/>
<path id="Vector_2" d="M2.5 18H33.5V27.5H2.5V18Z" fill="var(--fill-0, white)"/>
<path id="Vector_3" d="M10 11.5C10.2761 11.5 10.5 11.2761 10.5 11C10.5 10.7239 10.2761 10.5 10 10.5C9.72386 10.5 9.5 10.7239 9.5 11C9.5 11.2761 9.72386 11.5 10 11.5Z" fill="var(--fill-0, white)"/>
<path id="Vector_4" d="M9 14C9.27614 14 9.5 13.7761 9.5 13.5C9.5 13.2239 9.27614 13 9 13C8.72386 13 8.5 13.2239 8.5 13.5C8.5 13.7761 8.72386 14 9 14Z" fill="var(--fill-0, white)"/>
<path id="Vector_5" d="M11 14C11.2761 14 11.5 13.7761 11.5 13.5C11.5 13.2239 11.2761 13 11 13C10.7239 13 10.5 13.2239 10.5 13.5C10.5 13.7761 10.7239 14 11 14Z" fill="var(--fill-0, white)"/>
<path id="Vector_6" d="M8.5 12.5C8.77614 12.5 9 12.2761 9 12C9 11.7239 8.77614 11.5 8.5 11.5C8.22386 11.5 8 11.7239 8 12C8 12.2761 8.22386 12.5 8.5 12.5Z" fill="var(--fill-0, white)"/>
<path id="Vector_7" d="M11.5 12.5C11.7761 12.5 12 12.2761 12 12C12 11.7239 11.7761 11.5 11.5 11.5C11.2239 11.5 11 11.7239 11 12C11 12.2761 11.2239 12.5 11.5 12.5Z" fill="var(--fill-0, white)"/>
<path id="Vector_8" d="M5.59342 12.4615C5.5845 11.9019 5.7686 11.3564 6.11474 10.9166C6.46087 10.4769 6.94792 10.1698 7.49392 10.047C7.34392 10.0158 7.19113 10.0001 7.03792 10C6.40337 10.0271 5.80381 10.2983 5.3644 10.7569C4.92499 11.2155 4.67969 11.8261 4.67969 12.4613C4.67969 13.0964 4.92499 13.707 5.3644 14.1656C5.80381 14.6242 6.40337 14.8954 7.03792 14.9225C7.19113 14.9224 7.34392 14.9067 7.49392 14.8755C6.94801 14.7527 6.46102 14.4457 6.11489 14.0061C5.76877 13.5664 5.58462 13.021 5.59342 12.4615Z" fill="var(--fill-0, white)" stroke="var(--stroke-0, white)" stroke-width="0.225" stroke-linecap="round" stroke-linejoin="round"/>
<path id="Vector_9" d="M2.5 8.5H33.5V27.5H2.5V8.5Z" stroke="var(--stroke-0, black)" stroke-width="0.45" stroke-linecap="round" stroke-linejoin="round"/>
</g>
</svg>
