<svg preserveAspectRatio="none" width="100%" height="100%" overflow="visible" style="display: block;" viewBox="0 0 36 36" fill="none" xmlns="http://www.w3.org/2000/svg">
<g id="openmoji:flag-south-korea">
<path id="Vector" d="M2.5 8.5H33.5V27.5H2.5V8.5Z" fill="var(--fill-0, white)"/>
<path id="Vector_2" d="M18 22.5C20.4853 22.5 22.5 20.4853 22.5 18C22.5 15.5147 20.4853 13.5 18 13.5C15.5147 13.5 13.5 15.5147 13.5 18C13.5 20.4853 15.5147 22.5 18 22.5Z" fill="var(--fill-0, #D22F27)"/>
<path id="Vector_3" d="M14.0609 15.8381C13.788 16.3589 13.7303 16.9661 13.9001 17.529C14.0699 18.092 14.4538 18.5659 14.9692 18.849C15.4846 19.1321 16.0905 19.2017 16.6567 19.043C17.2229 18.8843 17.7042 18.5098 17.9974 18.0001C18.0089 17.9801 18.0144 17.9586 18.0249 17.9386L18.0369 17.9456C18.3461 17.4434 18.8403 17.083 19.4129 16.942C19.9855 16.8011 20.5906 16.8909 21.0975 17.1921C21.6045 17.4934 21.9726 17.9819 22.1225 18.5522C22.2725 19.1225 22.1921 19.7289 21.8989 20.2406L21.9004 20.2416C21.6113 20.7563 21.2236 21.2091 20.7594 21.5741C20.2953 21.939 19.7638 22.209 19.1954 22.3685C18.0473 22.6908 16.8183 22.5437 15.7786 21.9598C14.739 21.3759 13.9739 20.4028 13.6517 19.2548C13.3294 18.1067 13.4765 16.8777 14.0604 15.8381M14.1629 15.6436L14.1729 15.6491C14.1579 15.6721 14.1394 15.6916 14.1254 15.7156C14.1389 15.6921 14.1489 15.6666 14.1629 15.6436Z" fill="var(--fill-0, #1E50A0)"/>
<path id="Vector_4" d="M12.1148 20.951L13.6148 23.549M10.3828 21.951L11.8828 24.549M11.2488 21.451L11.7488 22.317M12.2488 23.1831L12.7488 24.049M22.7488 24.049L23.2488 23.1831M23.7488 22.317L24.2488 21.451M23.6148 24.549L24.1148 23.6831M24.6148 22.817L25.1148 21.951M21.8828 23.549L22.3828 22.6831M22.8828 21.817L23.3828 20.951M10.3828 14.049L11.8828 11.451M11.2488 14.549L12.7488 11.951M12.1148 15.049L13.6148 12.451M22.3828 12.451L22.8828 13.317M23.3828 14.183L23.8828 15.049M24.1148 11.451L24.6148 12.317M25.1148 13.183L25.6148 14.049M23.2488 11.951L24.7488 14.549" stroke="var(--stroke-0, black)" stroke-width="0.225" stroke-linecap="round" stroke-linejoin="round"/>
<path id="Vector_5" d="M2.5 8.5H33.5V27.5H2.5V8.5Z" stroke="var(--stroke-0, black)" stroke-width="0.45" stroke-linecap="round" stroke-linejoin="round"/>
</g>
</svg>
