<svg width="28" height="28" viewBox="0 0 28 28" fill="none" xmlns="http://www.w3.org/2000/svg">
<g clip-path="url(#clip0_290_3956)">
<path d="M23.8686 0H4.12719C1.85723 0 0 1.85723 0 4.12719V23.8706C0 26.1406 1.85723 27.9978 4.12719 27.9978H23.8706C26.1406 27.9978 27.9978 26.1406 27.9978 23.8706V4.12719C27.9957 1.85723 26.1406 0 23.8686 0ZM23.6034 14.9435H20.281V26.9639H15.3098V14.9435H12.8232V10.7998H15.3098V8.31319C15.3098 4.93302 16.713 2.92205 20.7061 2.92205H24.0254V7.06471H21.9494C20.3976 7.06471 20.2944 7.64562 20.2944 8.72591L20.281 10.7998H24.0419L23.6034 14.9435Z" fill="white"/>
</g>
<defs>
<clipPath id="clip0_290_3956">
<rect width="28" height="28" fill="white"/>
</clipPath>
</defs>
</svg>
