<svg width="29" height="29" viewBox="0 0 29 29" fill="none" xmlns="http://www.w3.org/2000/svg">
<g clip-path="url(#clip0_434_1311)">
<path d="M14.0094 9.34674C11.4276 9.34674 9.34625 11.4481 9.34625 14.0099C9.34625 16.5716 11.4477 18.673 14.0094 18.673C16.5711 18.673 18.6725 16.5716 18.6725 14.0099C18.6725 11.4481 16.5711 9.34674 14.0094 9.34674ZM28.0187 14.0099C28.0187 12.0686 28.0187 10.1673 27.9187 8.22599C27.8186 5.98449 27.2983 3.98315 25.6572 2.36207C24.0161 0.720971 22.0347 0.200622 19.7932 0.100555C17.8519 0.000488186 15.9507 0.000488281 14.0094 0.000488281C12.0681 0.000488281 10.1668 0.000488186 8.2255 0.100555C5.984 0.200622 3.98267 0.720971 2.36158 2.36207C0.720482 4.00317 0.200134 5.98449 0.100067 8.22599C-9.54313e-08 10.1673 0 12.0686 0 14.0099C0 15.9512 -9.54313e-08 17.8524 0.100067 19.7937C0.200134 22.0352 0.720482 24.0366 2.36158 25.6577C4.00268 27.2988 5.984 27.8191 8.2255 27.9192C10.1668 28.0192 12.0681 28.0192 14.0094 28.0192C15.9507 28.0192 17.8519 28.0192 19.7932 27.9192C22.0347 27.8191 24.0361 27.2988 25.6572 25.6577C27.2983 24.0166 27.8186 22.0352 27.9187 19.7937C28.0388 17.8724 28.0187 15.9512 28.0187 14.0099ZM14.0094 21.1947C10.0267 21.1947 6.82457 17.9925 6.82457 14.0099C6.82457 10.0272 10.0267 6.82506 14.0094 6.82506C17.992 6.82506 21.1942 10.0272 21.1942 14.0099C21.1942 17.9925 17.992 21.1947 14.0094 21.1947ZM21.4944 8.20598C20.5738 8.20598 19.8133 7.46548 19.8133 6.52486C19.8133 5.58423 20.5538 4.84373 21.4944 4.84373C22.435 4.84373 23.1755 5.58423 23.1755 6.52486C23.1806 6.74407 23.1406 6.962 23.0579 7.16511C22.9753 7.36823 22.8518 7.55221 22.6952 7.70564C22.5417 7.8623 22.3578 7.98576 22.1547 8.06839C21.9515 8.15101 21.7336 8.19103 21.5144 8.18597L21.4944 8.20598Z" fill="white"/>
</g>
<defs>
<clipPath id="clip0_434_1311">
<rect width="28.02" height="28.02" fill="white"/>
</clipPath>
</defs>
</svg>
