<svg preserveAspectRatio="none" width="100%" height="100%" overflow="visible" style="display: block;" viewBox="0 0 36 36" fill="none" xmlns="http://www.w3.org/2000/svg">
<g id="openmoji:flag-china">
<path id="Vector" d="M2.5 8.5H33.5V27.5H2.5V8.5Z" fill="var(--fill-0, #D22F27)"/>
<path id="Vector_2" d="M12 17.875C12.4832 17.875 12.875 17.4832 12.875 17C12.875 16.5168 12.4832 16.125 12 16.125C11.5168 16.125 11.125 16.5168 11.125 17C11.125 17.4832 11.5168 17.875 12 17.875Z" fill="var(--fill-0, #F1B31C)"/>
<path id="Vector_3" d="M12 12.875C12.4832 12.875 12.875 12.4832 12.875 12C12.875 11.5168 12.4832 11.125 12 11.125C11.5168 11.125 11.125 11.5168 11.125 12C11.125 12.4832 11.5168 12.875 12 12.875Z" fill="var(--fill-0, #F1B31C)"/>
<path id="Vector_4" d="M14 16.375C14.4832 16.375 14.875 15.9832 14.875 15.5C14.875 15.0168 14.4832 14.625 14 14.625C13.5168 14.625 13.125 15.0168 13.125 15.5C13.125 15.9832 13.5168 16.375 14 16.375Z" fill="var(--fill-0, #F1B31C)"/>
<path id="Vector_5" d="M14 13.875C14.4832 13.875 14.875 13.4832 14.875 13C14.875 12.5168 14.4832 12.125 14 12.125C13.5168 12.125 13.125 12.5168 13.125 13C13.125 13.4832 13.5168 13.875 14 13.875Z" fill="var(--fill-0, #F1B31C)"/>
<path id="Vector_6" d="M6.764 16.2225L8 12.2225L9.2365 16.2225L6 13.75H10L6.764 16.2225Z" fill="var(--fill-0, #F1B31C)" stroke="var(--stroke-0, #F1B31C)" stroke-width="0.25" stroke-linecap="round" stroke-linejoin="round"/>
<path id="Vector_7" d="M2.5 8.5H33.5V27.5H2.5V8.5Z" stroke="var(--stroke-0, black)" stroke-width="0.5" stroke-linecap="round" stroke-linejoin="round"/>
</g>
</svg>
