<svg width="36" height="36" viewBox="0 0 36 36" fill="none" xmlns="http://www.w3.org/2000/svg">
<path d="M2.5 8.5H33.5V27.5H2.5V8.5Z" fill="#D22F27"/>
<path d="M18.3468 15.8099C18.8378 15.4809 18.9748 14.6274 18.7068 14.1909C18.4388 13.7544 18.5173 13.1234 18.6348 12.8479C15.7533 13.5164 15.8503 16.7289 17.3163 17.5719C17.1363 16.4984 17.8558 16.1389 18.3468 15.8099Z" fill="white" stroke="white" stroke-width="0.5" stroke-linecap="round" stroke-linejoin="round"/>
<path d="M17.7188 15.21C17.9259 15.21 18.0938 15.0421 18.0938 14.835C18.0938 14.6279 17.9259 14.46 17.7188 14.46C17.5116 14.46 17.3438 14.6279 17.3438 14.835C17.3438 15.0421 17.5116 15.21 17.7188 15.21Z" fill="#D22F27"/>
<path d="M20.2284 18.09C20.6934 18.455 21.5474 18.3215 21.8794 17.932C22.2114 17.542 22.8359 17.422 23.1344 17.4485C21.6084 14.915 18.5829 15.9995 18.2344 17.6545C19.1999 17.1515 19.7639 17.7245 20.2284 18.09Z" fill="white" stroke="white" stroke-width="0.5" stroke-linecap="round" stroke-linejoin="round"/>
<path d="M20.6057 17.3028C20.6697 17.4997 20.8813 17.6075 21.0782 17.5435C21.2752 17.4795 21.383 17.268 21.319 17.071C21.255 16.874 21.0434 16.7662 20.8465 16.8302C20.6495 16.8942 20.5417 17.1058 20.6057 17.3028Z" fill="#D22F27"/>
<path d="M18.6551 20.585C18.4516 21.1395 18.8421 21.911 19.3156 22.106C19.7886 22.301 20.0961 22.8585 20.1631 23.1505C22.1011 20.916 20.1346 18.374 18.4531 18.554C19.2301 19.317 18.8586 20.0305 18.6551 20.585Z" fill="white" stroke="white" stroke-width="0.5" stroke-linecap="round" stroke-linejoin="round"/>
<path d="M19.5214 20.702C19.3539 20.8238 19.3167 21.0583 19.4384 21.2258C19.5602 21.3934 19.7947 21.4305 19.9622 21.3088C20.1298 21.1871 20.1669 20.9526 20.0452 20.785C19.9235 20.6174 19.689 20.5803 19.5214 20.702Z" fill="#D22F27"/>
<path d="M15.7865 19.85C15.196 19.8275 14.5835 20.438 14.544 20.948C14.504 21.4585 14.0695 21.923 13.8125 22.077C16.5365 23.23 18.3465 20.574 17.6555 19.03C17.1705 20.0045 16.3765 19.8725 15.7865 19.85Z" fill="white" stroke="white" stroke-width="0.5" stroke-linecap="round" stroke-linejoin="round"/>
<path d="M15.95 20.7063C15.7824 20.5845 15.5479 20.6217 15.4262 20.7892C15.3044 20.9568 15.3416 21.1913 15.5091 21.313C15.6767 21.4348 15.9112 21.3976 16.0329 21.2301C16.1547 21.0625 16.1175 20.828 15.95 20.7063Z" fill="#D22F27"/>
<path d="M15.6023 16.8999C15.4413 16.3314 14.6713 15.9375 14.1738 16.0575C13.6763 16.1775 13.1003 15.9074 12.8743 15.7104C12.6193 18.6574 15.7048 19.5579 16.9598 18.4239C15.8828 18.2639 15.7638 17.4679 15.6028 16.8994L15.6023 16.8999Z" fill="white" stroke="white" stroke-width="0.5" stroke-linecap="round" stroke-linejoin="round"/>
<path d="M14.8292 17.3153C14.8932 17.1183 14.7854 16.9068 14.5884 16.8428C14.3914 16.7788 14.1799 16.8866 14.1159 17.0835C14.0519 17.2805 14.1597 17.4921 14.3566 17.5561C14.5536 17.6201 14.7652 17.5123 14.8292 17.3153Z" fill="#D22F27"/>
<path d="M2.5 8.5H33.5V27.5H2.5V8.5Z" stroke="black" stroke-linecap="round" stroke-linejoin="round"/>
</svg>
