<svg preserveAspectRatio="none" width="100%" height="100%" overflow="visible" style="display: block;" viewBox="0 0 36 36" fill="none" xmlns="http://www.w3.org/2000/svg">
<g id="openmoji:flag-taiwan">
<path id="Vector" d="M2.5 8.5H33.5V27.5H2.5V8.5Z" fill="var(--fill-0, #D22F27)"/>
<path id="Vector_2" d="M2.5 8.5H18.5V18.5H2.5V8.5Z" fill="var(--fill-0, #1E50A0)"/>
<path id="Vector_3" d="M9.75781 12.7615L9.15831 10.9995L10.3843 12.4L10.7463 10.574L11.1078 12.4L12.3338 10.9995L11.7343 12.7615L13.4963 12.1615L12.0958 13.388L13.9218 13.7495L12.0958 14.1115L13.4963 15.3375L11.7343 14.7375L12.3338 16.5L11.1078 15.0995L10.7463 16.9255L10.3843 15.0995L9.15831 16.5L9.75781 14.7375L7.99581 15.3375L9.39631 14.1115L7.57031 13.7495L9.39631 13.388L7.99581 12.1615L9.75781 12.7615Z" fill="var(--fill-0, white)" stroke="var(--stroke-0, white)" stroke-width="0.225" stroke-linecap="round" stroke-linejoin="round"/>
<path id="Vector_4" d="M10.7476 15.7944C11.8768 15.7944 12.7921 14.8791 12.7921 13.7499C12.7921 12.6208 11.8768 11.7054 10.7476 11.7054C9.61848 11.7054 8.70312 12.6208 8.70312 13.7499C8.70312 14.8791 9.61848 15.7944 10.7476 15.7944Z" stroke="var(--stroke-0, #1E50A0)" stroke-width="0.225" stroke-miterlimit="10"/>
<path id="Vector_5" d="M2.5 8.5H33.5V27.5H2.5V8.5Z" stroke="var(--stroke-0, black)" stroke-width="0.45" stroke-linecap="round" stroke-linejoin="round"/>
</g>
</svg>
